<svg width="50" height="50" viewBox="0 0 50 50" fill="none" xmlns="http://www.w3.org/2000/svg">
<path d="M22.9268 10.8509V34.1217L12.7601 23.9551C11.9476 23.1426 10.6143 23.1426 9.80176 23.9551C8.98926 24.7676 8.98926 26.0801 9.80176 26.8926L23.5309 40.6217C24.3434 41.4342 25.6559 41.4342 26.4684 40.6217L40.1976 26.8926C41.0101 26.0801 41.0101 24.7676 40.1976 23.9551C39.8084 23.565 39.2799 23.3457 38.7288 23.3457C38.1778 23.3457 37.6493 23.565 37.2601 23.9551L27.0934 34.1217V10.8509C27.0934 9.70508 26.1559 8.76758 25.0101 8.76758C23.8643 8.76758 22.9268 9.70508 22.9268 10.8509Z" fill="white"/>
</svg>
