<svg width="20" height="19" viewBox="0 0 20 19" fill="none" xmlns="http://www.w3.org/2000/svg">
<path d="M17.0384 1.58312H3.62762C3.47687 1.58102 3.32718 1.60865 3.18711 1.66441C3.04703 1.72017 2.91932 1.80298 2.81125 1.90811C2.70318 2.01323 2.61688 2.13862 2.55728 2.2771C2.49767 2.41558 2.46593 2.56445 2.46387 2.7152V16.2844C2.46593 16.4351 2.49767 16.584 2.55728 16.7225C2.61688 16.861 2.70318 16.9863 2.81125 17.0915C2.91932 17.1966 3.04703 17.2794 3.18711 17.3352C3.32718 17.3909 3.47687 17.4185 3.62762 17.4165H17.0384C17.1892 17.4185 17.3389 17.3909 17.479 17.3352C17.619 17.2794 17.7468 17.1966 17.8548 17.0915C17.9629 16.9863 18.0492 16.861 18.1088 16.7225C18.1684 16.584 18.2001 16.4351 18.2022 16.2844V2.7152C18.2001 2.56445 18.1684 2.41558 18.1088 2.2771C18.0492 2.13862 17.9629 2.01323 17.8548 1.90811C17.7468 1.80298 17.619 1.72017 17.479 1.66441C17.3389 1.60865 17.1892 1.58102 17.0384 1.58312ZM7.23762 14.8356H4.86262V7.71062H7.23762V14.8356ZM6.05012 6.71312C5.72257 6.71312 5.40845 6.583 5.17684 6.3514C4.94523 6.11979 4.81512 5.80566 4.81512 5.47812C4.81512 5.15058 4.94523 4.83645 5.17684 4.60484C5.40845 4.37323 5.72257 4.24312 6.05012 4.24312C6.22404 4.22339 6.40017 4.24063 6.56698 4.29369C6.73378 4.34676 6.88749 4.43446 7.01805 4.55105C7.14861 4.66764 7.25308 4.81049 7.3246 4.97025C7.39612 5.13001 7.43309 5.30308 7.43309 5.47812C7.43309 5.65316 7.39612 5.82623 7.3246 5.98599C7.25308 6.14575 7.14861 6.2886 7.01805 6.40519C6.88749 6.52178 6.73378 6.60948 6.56698 6.66254C6.40017 6.71561 6.22404 6.73284 6.05012 6.71312ZM15.8035 14.8356H13.4285V11.0119C13.4285 10.054 13.088 9.42854 12.2251 9.42854C11.9581 9.43049 11.698 9.51426 11.48 9.66855C11.262 9.82284 11.0966 10.0402 11.006 10.2915C10.944 10.4775 10.9172 10.6735 10.9268 10.8694V14.8277H8.55178C8.55178 14.8277 8.55178 8.35187 8.55178 7.7027H10.9268V8.70812C11.1425 8.33374 11.4563 8.02532 11.8344 7.81607C12.2124 7.60682 12.6404 7.50467 13.0722 7.52062C14.6555 7.52062 15.8035 8.54187 15.8035 10.7348V14.8356Z" fill="white"/>
</svg>
