<svg width="19" height="19" viewBox="0 0 19 19" fill="none" xmlns="http://www.w3.org/2000/svg">
<path d="M17.4163 4.59208C16.8213 4.85024 16.192 5.02089 15.548 5.09874C16.2274 4.69287 16.7365 4.05436 16.9809 3.30166C16.3425 3.68171 15.6436 3.94948 14.9147 4.09333C14.4274 3.56495 13.7786 3.21323 13.0699 3.09333C12.3613 2.97344 11.6329 3.09215 10.9989 3.43085C10.365 3.76955 9.86141 4.30908 9.56716 4.96482C9.2729 5.62056 9.20461 6.35543 9.37301 7.05416C8.08214 6.98887 6.81944 6.65275 5.66694 6.06763C4.51444 5.48252 3.49793 4.6615 2.68342 3.65791C2.39774 4.15679 2.24763 4.72177 2.24801 5.29666C2.24699 5.83055 2.37801 6.3564 2.6294 6.8274C2.88078 7.2984 3.24473 7.69993 3.68884 7.99624C3.17266 7.9822 2.6675 7.84369 2.21634 7.59249V7.63208C2.22021 8.38012 2.48234 9.10386 2.95838 9.68088C3.43443 10.2579 4.09517 10.6528 4.82884 10.7987C4.54642 10.8847 4.2532 10.93 3.95801 10.9333C3.75367 10.9309 3.54984 10.9124 3.34842 10.8779C3.55735 11.5214 3.96167 12.0837 4.50511 12.4867C5.04855 12.8897 5.70409 13.1132 6.38051 13.1262C5.23829 14.025 3.82808 14.5155 2.37467 14.5196C2.11005 14.5204 1.84563 14.5046 1.58301 14.4721C3.06693 15.4302 4.79623 15.9388 6.56259 15.9367C7.78151 15.9493 8.99074 15.719 10.1196 15.2591C11.2485 14.7991 12.2745 14.1189 13.1375 13.2581C14.0006 12.3972 14.6835 11.373 15.1463 10.2453C15.6091 9.11758 15.8425 7.90894 15.833 6.68999C15.833 6.55541 15.833 6.41291 15.833 6.27041C16.4542 5.80714 16.99 5.2392 17.4163 4.59208V4.59208Z" fill="white"/>
</svg>
